<?xml version="1.0" standalone="no"?>
<!DOCTYPE svg PUBLIC "-//W3C//DTD SVG 1.1//EN" "http://www.w3.org/Graphics/SVG/1.1/DTD/svg11.dtd" >
<svg xmlns="http://www.w3.org/2000/svg">
<metadata></metadata>
<defs>
<font id="bebastamregular" horiz-adv-x="811" >
<font-face units-per-em="2048" ascent="1638" descent="-410" />
<missing-glyph horiz-adv-x="317" />
<glyph horiz-adv-x="0" />
<glyph horiz-adv-x="682" />
<glyph unicode=" "  horiz-adv-x="317" />
<glyph unicode="&#x09;" horiz-adv-x="317" />
<glyph unicode="&#xa0;" horiz-adv-x="317" />
<glyph unicode="!" horiz-adv-x="389" d="M-109 1434h224l159 -598l111 -519h-168l-168 519zM219 217h217l58 -217h-218z" />
<glyph unicode="&#x22;" horiz-adv-x="665" d="M25 1434h217l80 -422h-154zM309 1434h217l80 -422h-153z" />
<glyph unicode="#" horiz-adv-x="839" d="M-2 1104h100l-53 330h184l54 -330h133l-54 330h185l53 -330h105l26 -160h-104l61 -375h105l26 -159h-104l65 -410h-184l-66 410h-133l66 -410h-184l-66 410h-100l-27 159h100l-61 375h-102zM309 944l62 -375h133l-62 375h-133z" />
<glyph unicode="$" d="M-21 1303.5q36 89.5 146 115.5l-29 107h185l28 -107q126 -25 211 -114t123 -236l12 -45h-213l-14 59q-40 142 -152 142q-113 0 -73 -142q16 -60 53.5 -111t87 -89.5t106.5 -76t115 -80t110 -91t95 -118t66 -152.5q39 -146 0.5 -237t-150.5 -116l27 -104h-185l-26 104 q-128 25 -213.5 115t-124.5 238l-27 98h213l29 -113q40 -139 156 -139q117 0 77 139q-16 60 -53.5 111t-86.5 89.5t-106 76.5t-115 80.5t-109.5 91t-94.5 118t-65 152.5q-39 145 -3 234.5z" />
<glyph unicode="%" horiz-adv-x="1284" d="M-63 1214q-29 111 10 170.5t143 59.5q105 0 177.5 -59.5t101.5 -170.5l127 -471q29 -111 -11 -170t-145 -59q-106 0 -178 59.5t-101 169.5zM76 1225l131 -492q26 -90 98 -90q75 0 49 90l-131 492q-23 90 -98 90q-72 0 -49 -90zM477 0l182 1434h134l-183 -1434h-133z M786 690q-29 111 11 170.5t145 59.5t177.5 -59.5t101.5 -170.5l127 -471q29 -111 -11 -170t-145 -59q-106 0 -178 59.5t-101 169.5zM928 700l131 -491q23 -90 98 -90q72 0 49 90l-131 491q-26 91 -98 91q-75 0 -49 -91z" />
<glyph unicode="&#x26;" horiz-adv-x="847" d="M-14 1079q-46 174 13 264.5t226 90.5h258l54 -205h-254q-116 0 -76 -139l22 -89q22 -82 66 -116.5t111 -34.5h98l-43 160h225l43 -160h59l56 -205h-60l125 -471q34 -120 72 -174h-229q-26 42 -52 113q-25 -129 -174 -129q-124 0 -209.5 84t-128.5 243l-38 146 q-62 231 75 301q-172 65 -233 295zM372 604q-23 -41 3 -141l35 -133q38 -142 155 -142q110 0 82 125l-88 332h-86q-78 0 -101 -41z" />
<glyph unicode="'" horiz-adv-x="368" d="M18 1434h218l79 -422h-153z" />
<glyph unicode="(" horiz-adv-x="514" d="M-10 1120q-45 171 8 242.5t221 71.5h70l49 -185h-55q-57 0 -73 -26.5t3 -102.5l215 -807q21 -74 52 -101.5t87 -27.5h56l49 -184h-70q-170 0 -262 71t-137 242z" />
<glyph unicode=")" horiz-adv-x="514" d="M-158 1434h70q168 0 260 -71.5t137 -242.5l215 -807q45 -171 -8 -242t-223 -71h-70l-49 184h55q57 0 73 26t-3 103l-215 807q-21 74 -52 101.5t-85 27.5h-56z" />
<glyph unicode="*" d="M-2 1075l10 174l346 -153l-143 338h184l37 -338l264 153l103 -174l-320 -57l303 -240l-118 -108l-238 303l-78 -303l-176 108l176 240z" />
<glyph unicode="+" d="M29 797h274l-74 276h160l74 -276h274l43 -160h-274l74 -281h-160l-74 281h-274z" />
<glyph unicode="," horiz-adv-x="380" d="M25 217h217l51 -194l-37 -228h-92l4 205h-86z" />
<glyph unicode="-" horiz-adv-x="552" d="M43 819h410l55 -205h-410z" />
<glyph unicode="." horiz-adv-x="380" d="M51 217h217l60 -217h-217z" />
<glyph unicode="/" horiz-adv-x="780" d="M201 0l182 1434h195l-183 -1434h-194z" />
<glyph unicode="0" d="M-35 1090q-46 172 17 266t227 94q165 0 278.5 -94t159.5 -266l199 -746q46 -172 -17.5 -266t-228.5 -94t-278.5 94t-159.5 266zM184 1104l207 -774q40 -142 156 -142q118 0 78 142l-207 774q-40 141 -156 141q-118 0 -78 -141z" />
<glyph unicode="1" d="M76 1253q50 0 86.5 10.5t56.5 25t32.5 41t16.5 48t8 56.5h152l383 -1434h-225l-293 1094h-174z" />
<glyph unicode="2" d="M-14 1090q-46 174 13.5 267t223.5 93t275 -93.5t157 -266.5q29 -108 21.5 -203.5t-38.5 -166t-71 -138t-75.5 -120.5t-53 -112.5t-2.5 -113.5q4 -22 10 -31h426l54 -205h-652l-47 176q-18 67 -19 128t12 109t34.5 93t48 85.5t52.5 80.5t48 84.5t35 91.5t12.5 107 t-18.5 126q-25 92 -64.5 128t-97.5 36q-114 0 -77 -141l40 -154h-213z" />
<glyph unicode="3" d="M-29 1090q-46 173 14.5 266.5t223.5 93.5q164 0 275 -93.5t157 -266.5l10 -37q61 -229 -80 -295q177 -68 240 -301l29 -113q46 -173 -15 -266.5t-225 -93.5t-275 93.5t-157 266.5l-31 119h213l35 -133q40 -142 156 -142q38 0 58 14t26 50t-13 98l-28 113 q-27 99 -73.5 140.5t-123.5 41.5h-76l-55 205h88q67 0 91.5 34.5t2.5 116.5l-20 80q-25 92 -64.5 128t-97.5 36q-118 0 -78 -141l25 -92h-211z" />
<glyph unicode="4" d="M94 465l152 969h246l258 -969h106l55 -205h-106l69 -260h-225l-69 260h-430zM301 465h223l-141 530z" />
<glyph unicode="5" d="M-80 1434h592l53 -205h-391l74 -342q35 104 170 104q124 0 209 -84t127 -243l86 -320q46 -173 -15 -266.5t-225 -93.5t-275 93.5t-157 266.5l-31 119h213l35 -133q37 -140 154 -140q116 0 79 140l-83 315q-40 141 -156 141q-118 0 -78 -141l10 -43h-213z" />
<glyph unicode="6" d="M-29 1077q-97 373 244 373q164 0 275 -93.5t157 -266.5l10 -37h-213l-14 51q-40 141 -156 141q-42 0 -63.5 -15t-27.5 -54.5t14 -106.5l71 -262q25 127 174 127q123 0 209 -84t129 -244l70 -262q46 -172 -17.5 -266t-228.5 -94t-278.5 94t-159.5 266zM326 588l69 -258 q40 -140 154 -140q120 0 80 140l-70 258q-37 141 -153 141q-117 0 -80 -141z" />
<glyph unicode="7" d="M-123 1434h674l51 -197v-1237h-225l2 1229h-447z" />
<glyph unicode="8" d="M-45 1090q-46 172 20 266t234 94q170 0 286 -94t162 -266l13 -46q56 -212 -64 -288q161 -77 221 -299l29 -113q46 -172 -20 -266t-236 -94t-286 94t-162 266l-29 113q-60 221 57 299q-161 77 -213 288zM178.5 1208.5q-23.5 -36.5 1.5 -127.5l21 -80q41 -151 168 -151 t86 151l-21 80q-44 164 -172 164q-60 0 -83.5 -36.5zM340 483l35 -133q45 -162 172 -162q59 0 82 36.5t0 125.5l-35 133q-44 162 -170 162q-128 0 -84 -162z" />
<glyph unicode="9" d="M-39 1090q-46 172 17 266t227 94q165 0 278.5 -94t159.5 -266l197 -734q97 -372 -246 -372q-164 0 -275 93.5t-157 266.5l-10 37h213l14 -51q40 -142 156 -142q42 0 64 15.5t27.5 55t-14.5 106.5l-71 262q-25 -127 -174 -127q-124 0 -209.5 84t-128.5 243zM180 1104 l70 -258q37 -141 153 -141q117 0 80 141l-69 258q-40 139 -154 139q-120 0 -80 -139z" />
<glyph unicode=":" horiz-adv-x="380" d="M-51 997h215l59 -217h-217zM156 217h217l59 -217h-217z" />
<glyph unicode=";" horiz-adv-x="380" d="M-78 997h215l58 -217h-215zM129 217h217l51 -194l-37 -228h-92l4 205h-86z" />
<glyph unicode="&#x3c;" d="M39 797l602 245l43 -161l-414 -164l502 -164l43 -162l-733 246z" />
<glyph unicode="=" d="M4 963h668l43 -160h-668zM94 631h668l43 -160h-668z" />
<glyph unicode="&#x3e;" d="M-4 1042l731 -245l43 -160l-602 -246l-43 162l416 164l-504 164z" />
<glyph unicode="?" horiz-adv-x="737" d="M-55 1090q-46 173 13 266.5t220 93.5q163 0 272.5 -93.5t155.5 -266.5q20 -76 23 -142t-8 -112.5t-27.5 -92.5t-35 -81t-31 -78.5t-15.5 -85t12 -101.5q14 -47 31 -80h-201q-25 45 -37 89q-17 63 -18 118t10 96t27 79.5t31.5 79.5t25 85.5t6.5 106t-22 133.5 q-37 141 -152 141q-56 0 -74 -32.5t1 -108.5l41 -156h-211zM371 217h217l57 -217h-217z" />
<glyph unicode="@" horiz-adv-x="1411" d="M29 884q-7 137 23 253t95.5 200t177 131.5t259.5 47.5q126 0 233 -31t185.5 -85t141 -131.5t103.5 -165t68 -190.5q39 -145 43.5 -261t-17.5 -187.5t-63.5 -119t-88 -66.5t-97.5 -19q-172 0 -218 135q-28 -129 -165 -123q-108 3 -176 84t-93 232l-32 207 q-26 151 16.5 229t150.5 74q127 -3 203 -127l-20 119h196l97 -592q9 -52 55 -52q41 0 62.5 42.5t22 111.5t-10.5 148t-33 161q-55 201 -186.5 316.5t-337.5 115.5q-180 0 -281.5 -92.5t-116.5 -260.5t45 -404q68 -254 225 -394.5t396 -140.5q123 0 214 30t173 109l37 -196 q-81 -64 -174 -89.5t-215 -25.5q-169 0 -310.5 52t-245.5 148t-177.5 225.5t-116.5 291.5q-40 153 -47 290zM608 772l27 -174q22 -132 125 -135q48 -2 69 29.5t11 99.5l-31 194q-10 57 -42.5 86t-76.5 29q-51 2 -72.5 -28.5t-9.5 -100.5z" />
<glyph unicode="A" horiz-adv-x="833" d="M59 1434h330l612 -1434h-227l-108 260h-277l31 -260h-207zM281 1180l86 -725h217z" />
<glyph unicode="B" horiz-adv-x="831" d="M-109 1434h338q173 0 275 -81t147 -249l15 -51q18 -69 18 -123q0 -119 -88 -166q187 -65 252 -307l31 -117q18 -68 18 -122q0 -79 -38 -131q-64 -87 -232 -87h-355zM170 1229l100 -379h88q67 0 92 34q13 18 13 51q0 28 -10 66l-21 80q-22 77 -58 112.5t-95 35.5h-109z M326 645l116 -440h129q61 0 81 32q10 16 10 43t-11 66l-33 125q-27 98 -70.5 136t-121.5 38h-100z" />
<glyph unicode="C" horiz-adv-x="790" d="M-35 1090q-20 75 -20 135q1 79 35 131q60 94 223 94q164 0 275 -93.5t157 -266.5l37 -140h-213l-41 154q-40 141 -156 141q-88 0 -88 -79q0 -27 10 -62l207 -774q40 -140 154 -140q90 0 90 79q0 26 -10 61l-56 205h213l52 -191q20 -74 20 -134q0 -78 -35 -132 q-61 -94 -225 -94t-275 93.5t-157 266.5z" />
<glyph unicode="D" horiz-adv-x="835" d="M-109 1434h355q167 0 275.5 -91t154.5 -264l194 -725q20 -75 20 -135q0 -79 -34 -129q-60 -90 -227 -90h-357zM170 1229l272 -1024h127q88 0 88 78q0 26 -10 61l-198 746q-21 74 -58.5 106.5t-93.5 32.5h-127z" />
<glyph unicode="E" horiz-adv-x="753" d="M-109 1434h613l55 -205h-389l106 -400h310l55 -204h-309l110 -420h389l56 -205h-615z" />
<glyph unicode="F" horiz-adv-x="704" d="M-109 1434h594l56 -205h-371l115 -432h290l56 -205h-291l158 -592h-226z" />
<glyph unicode="G" horiz-adv-x="798" d="M-35 1090q-20 75 -20 135q0 78 35 131q60 94 223 94q164 0 275 -93.5t157 -266.5l37 -140h-213l-41 154q-40 141 -156 141q-88 0 -88 -79q0 -26 10 -62l207 -774q40 -140 154 -140q90 0 90 79q0 26 -10 61l-70 264h-102l-56 205h316l121 -455q20 -74 20 -134 q0 -79 -35 -132q-61 -94 -225 -94t-275 93.5t-157 266.5z" />
<glyph unicode="H" horiz-adv-x="874" d="M-109 1434h224l164 -615h256l-164 615h229l383 -1434h-229l-164 614h-256l164 -614h-226z" />
<glyph unicode="I" horiz-adv-x="389" d="M-109 1434h224l383 -1434h-226z" />
<glyph unicode="J" horiz-adv-x="524" d="M33 1434h225l289 -1078q23 -84 23 -148q0 -212 -248 -212q-72 0 -111 4l-55 205q25 -2 77 -2q61 0 88 30q16 17 16 50q0 24 -9 57z" />
<glyph unicode="K" horiz-adv-x="847" d="M-109 1434h224l166 -625l129 625h225l-143 -639l526 -795h-232l-370 571l-35 -131l117 -440h-226z" />
<glyph unicode="L" horiz-adv-x="694" d="M-109 1434h224l327 -1229h371l55 -205h-596z" />
<glyph unicode="M" horiz-adv-x="1107" d="M-111 1434h312l438 -1018l-119 1018h314l383 -1434h-213l-275 1028l119 -1028h-213l-438 1014l270 -1014h-197z" />
<glyph unicode="N" horiz-adv-x="874" d="M-111 1434h281l461 -859l-230 859h201l383 -1434h-231l-559 1038l278 -1038h-203z" />
<glyph unicode="O" d="M-35 1090q-19 73 -19 131q0 80 36 135q63 94 227 94q165 0 278.5 -94t159.5 -266l199 -746q19 -72 19 -131q-1 -81 -37 -135q-64 -94 -228.5 -94t-278 94t-159.5 266zM184 1104l207 -774q40 -142 156 -142q88 0 88 79q0 27 -10 63l-207 774q-40 141 -156 141 q-88 0 -88 -79q0 -26 10 -62z" />
<glyph unicode="P" horiz-adv-x="772" d="M-109 1434h330q167 0 275.5 -91t154.5 -264l49 -186q20 -76 20 -136q0 -77 -33 -128q-59 -90 -226 -90h-107l144 -539h-226zM170 1229l129 -486h107q56 -1 74 29q9 14 9 40q0 27 -10 67l-57 215q-20 74 -55 104.5t-91 30.5h-106z" />
<glyph unicode="Q" d="M-45 1090q-19 73 -19 131q0 81 36 135q63 94 227 94q165 0 278.5 -94t159.5 -266l201 -746q18 -73 18 -131q0 -39 -8 -70q11 -19 26.5 -24.5t45.5 -5.5h20l53 -201h-30q-146 0 -222 98q-67 -26 -149 -26q-165 0 -278.5 94t-159.5 266zM174 1104l207 -774 q40 -142 156 -142q87 0 87 79q0 27 -10 63l-206 774q-37 141 -154 141q-89 0 -89 -81q0 -26 9 -60z" />
<glyph unicode="R" horiz-adv-x="823" d="M-109 1434h338q173 0 275 -81t147 -249l31 -113q19 -69 18 -124q0 -119 -88 -167q90 -34 144.5 -110t87.5 -195l59 -221q30 -117 70 -174h-230q-19 30 -31.5 61.5t-35.5 114.5l-60 225q-28 99 -73.5 141t-122.5 42h-78l156 -584h-226zM170 1229l117 -441h88q67 0 91 34 q13 18 13 50q0 28 -10 68l-37 141q-22 77 -58 112.5t-95 35.5h-109z" />
<glyph unicode="S" horiz-adv-x="765" d="M-45 1090q-20 76 -20 136q0 78 33 130q59 94 220 94q163 0 272.5 -93.5t155.5 -266.5l13 -46h-213l-17 60q-21 75 -58 108t-93 33q-84 0 -84 -77q0 -27 10 -64q16 -60 54.5 -113t88.5 -95.5t108.5 -85t117.5 -89t112 -98.5t96.5 -124t65.5 -155q20 -75 20 -135 q-1 -79 -35 -131q-60 -94 -224 -94q-165 0 -276 93.5t-157 266.5l-22 88h213l26 -102q40 -140 154 -140q90 0 90 79q0 26 -10 61q-16 59 -54.5 112.5t-88.5 96t-108.5 85t-117.5 89t-111.5 98.5t-95.5 124t-65 155z" />
<glyph unicode="T" horiz-adv-x="729" d="M-174 1434h694l55 -205h-235l328 -1229h-226l-327 1229h-234z" />
<glyph unicode="U" horiz-adv-x="815" d="M-121 1434h223l295 -1106q40 -140 154 -140q90 0 90 79q0 26 -10 61l-295 1106h213l291 -1092q20 -74 20 -134q0 -78 -35 -132q-61 -94 -225 -94t-275 93.5t-157 266.5z" />
<glyph unicode="V" horiz-adv-x="823" d="M-168 1434h225l486 -1170l-142 1170h207l162 -1434h-336z" />
<glyph unicode="W" horiz-adv-x="1153" d="M-160 1434h217l424 -1131l-194 1131h217l418 -1139l-189 1139h197l223 -1434h-299l-287 764l123 -764h-309z" />
<glyph unicode="X" horiz-adv-x="880" d="M-143 1434h231l311 -529l33 529h209l-49 -697l448 -737h-237l-336 567l-35 -567h-211l55 737z" />
<glyph unicode="Y" d="M-182 1434h233l346 -654l-2 654h215l-28 -959l127 -475h-226l-127 475z" />
<glyph unicode="Z" horiz-adv-x="757" d="M-123 1434h637l53 -201l-153 -1028h428l55 -205h-659l-54 201l154 1028h-406z" />
<glyph unicode="[" horiz-adv-x="514" d="M-94 1434h370l50 -185h-148l285 -1065h147l49 -184h-372z" />
<glyph unicode="\" horiz-adv-x="780" d="M-180 1434h192l949 -1434h-195z" />
<glyph unicode="]" horiz-adv-x="514" d="M-145 1434h370l383 -1434h-372l-50 184h148l-285 1065h-145z" />
<glyph unicode="^" d="M125 799l115 635h159l455 -635h-180l-299 430l-70 -430h-180z" />
<glyph unicode="_" horiz-adv-x="1024" d="M-20 -20h1021l43 -164h-1024z" />
<glyph unicode="`" horiz-adv-x="512" d="M59 1737h232l198 -228h-161z" />
<glyph unicode="a" horiz-adv-x="833" d="M59 1434h330l612 -1434h-227l-108 260h-277l31 -260h-207zM281 1180l86 -725h217z" />
<glyph unicode="b" horiz-adv-x="831" d="M-109 1434h338q173 0 275 -81t147 -249l15 -51q18 -69 18 -123q0 -119 -88 -166q187 -65 252 -307l31 -117q18 -68 18 -122q0 -79 -38 -131q-64 -87 -232 -87h-355zM170 1229l100 -379h88q67 0 92 34q13 18 13 51q0 28 -10 66l-21 80q-22 77 -58 112.5t-95 35.5h-109z M326 645l116 -440h129q61 0 81 32q10 16 10 43t-11 66l-33 125q-27 98 -70.5 136t-121.5 38h-100z" />
<glyph unicode="c" horiz-adv-x="790" d="M-35 1090q-20 75 -20 135q1 79 35 131q60 94 223 94q164 0 275 -93.5t157 -266.5l37 -140h-213l-41 154q-40 141 -156 141q-88 0 -88 -79q0 -27 10 -62l207 -774q40 -140 154 -140q90 0 90 79q0 26 -10 61l-56 205h213l52 -191q20 -74 20 -134q0 -78 -35 -132 q-61 -94 -225 -94t-275 93.5t-157 266.5z" />
<glyph unicode="d" horiz-adv-x="835" d="M-109 1434h355q167 0 275.5 -91t154.5 -264l194 -725q20 -75 20 -135q0 -79 -34 -129q-60 -90 -227 -90h-357zM170 1229l272 -1024h127q88 0 88 78q0 26 -10 61l-198 746q-21 74 -58.5 106.5t-93.5 32.5h-127z" />
<glyph unicode="e" horiz-adv-x="753" d="M-109 1434h613l55 -205h-389l106 -400h310l55 -204h-309l110 -420h389l56 -205h-615z" />
<glyph unicode="f" horiz-adv-x="704" d="M-109 1434h594l56 -205h-371l115 -432h290l56 -205h-291l158 -592h-226z" />
<glyph unicode="g" horiz-adv-x="798" d="M-35 1090q-20 75 -20 135q0 78 35 131q60 94 223 94q164 0 275 -93.5t157 -266.5l37 -140h-213l-41 154q-40 141 -156 141q-88 0 -88 -79q0 -26 10 -62l207 -774q40 -140 154 -140q90 0 90 79q0 26 -10 61l-70 264h-102l-56 205h316l121 -455q20 -74 20 -134 q0 -79 -35 -132q-61 -94 -225 -94t-275 93.5t-157 266.5z" />
<glyph unicode="h" horiz-adv-x="874" d="M-109 1434h224l164 -615h256l-164 615h229l383 -1434h-229l-164 614h-256l164 -614h-226z" />
<glyph unicode="i" horiz-adv-x="389" d="M-109 1434h224l383 -1434h-226z" />
<glyph unicode="j" horiz-adv-x="524" d="M33 1434h225l289 -1078q23 -84 23 -148q0 -212 -248 -212q-72 0 -111 4l-55 205q25 -2 77 -2q61 0 88 30q16 17 16 50q0 24 -9 57z" />
<glyph unicode="k" horiz-adv-x="847" d="M-109 1434h224l166 -625l129 625h225l-143 -639l526 -795h-232l-370 571l-35 -131l117 -440h-226z" />
<glyph unicode="l" horiz-adv-x="694" d="M-109 1434h224l327 -1229h371l55 -205h-596z" />
<glyph unicode="m" horiz-adv-x="1107" d="M-111 1434h312l438 -1018l-119 1018h314l383 -1434h-213l-275 1028l119 -1028h-213l-438 1014l270 -1014h-197z" />
<glyph unicode="n" horiz-adv-x="874" d="M-111 1434h281l461 -859l-230 859h201l383 -1434h-231l-559 1038l278 -1038h-203z" />
<glyph unicode="o" d="M-35 1090q-19 73 -19 131q0 80 36 135q63 94 227 94q165 0 278.5 -94t159.5 -266l199 -746q19 -72 19 -131q-1 -81 -37 -135q-64 -94 -228.5 -94t-278 94t-159.5 266zM184 1104l207 -774q40 -142 156 -142q88 0 88 79q0 27 -10 63l-207 774q-40 141 -156 141 q-88 0 -88 -79q0 -26 10 -62z" />
<glyph unicode="p" horiz-adv-x="772" d="M-109 1434h330q167 0 275.5 -91t154.5 -264l49 -186q20 -76 20 -136q0 -77 -33 -128q-59 -90 -226 -90h-107l144 -539h-226zM170 1229l129 -486h107q56 0 74 29q9 15 9 40q0 27 -10 67l-57 215q-20 74 -55 104.5t-91 30.5h-106z" />
<glyph unicode="q" d="M-45 1090q-19 73 -19 131q0 81 36 135q63 94 227 94q165 0 278.5 -94t159.5 -266l201 -746q18 -73 18 -131q0 -39 -8 -70q11 -19 26.5 -24.5t45.5 -5.5h20l53 -201h-30q-146 0 -222 98q-67 -26 -149 -26q-165 0 -278.5 94t-159.5 266zM174 1104l207 -774 q40 -142 156 -142q87 0 87 79q0 27 -10 63l-206 774q-37 141 -154 141q-89 0 -89 -81q0 -26 9 -60z" />
<glyph unicode="r" horiz-adv-x="823" d="M-109 1434h338q173 0 275 -81t147 -249l31 -113q19 -69 18 -124q0 -119 -88 -167q90 -34 144.5 -110t87.5 -195l59 -221q30 -117 70 -174h-230q-19 30 -31.5 61.5t-35.5 114.5l-60 225q-28 99 -73.5 141t-122.5 42h-78l156 -584h-226zM170 1229l117 -441h88q67 0 91 34 q13 18 13 50q0 28 -10 68l-37 141q-22 77 -58 112.5t-95 35.5h-109z" />
<glyph unicode="s" horiz-adv-x="765" d="M-45 1090q-20 76 -20 136q0 78 33 130q59 94 220 94q163 0 272.5 -93.5t155.5 -266.5l13 -46h-213l-17 60q-21 75 -58 108t-93 33q-84 0 -84 -77q0 -27 10 -64q16 -60 54.5 -113t88.5 -95.5t108.5 -85t117.5 -89t112 -98.5t96.5 -124t65.5 -155q20 -75 20 -135 q-1 -79 -35 -131q-60 -94 -224 -94q-165 0 -276 93.5t-157 266.5l-22 88h213l26 -102q40 -140 154 -140q90 0 90 79q0 26 -10 61q-16 59 -54.5 112.5t-88.5 96t-108.5 85t-117.5 89t-111.5 98.5t-95.5 124t-65 155z" />
<glyph unicode="t" horiz-adv-x="729" d="M-174 1434h694l55 -205h-235l328 -1229h-226l-327 1229h-234z" />
<glyph unicode="u" horiz-adv-x="815" d="M-121 1434h223l295 -1106q40 -140 154 -140q90 0 90 79q0 26 -10 61l-295 1106h213l291 -1092q20 -74 20 -134q0 -78 -35 -132q-61 -94 -225 -94t-275 93.5t-157 266.5z" />
<glyph unicode="v" horiz-adv-x="823" d="M-168 1434h225l486 -1170l-142 1170h207l162 -1434h-336z" />
<glyph unicode="w" horiz-adv-x="1153" d="M-160 1434h217l424 -1131l-194 1131h217l418 -1139l-189 1139h197l223 -1434h-299l-287 764l123 -764h-309z" />
<glyph unicode="x" horiz-adv-x="880" d="M-143 1434h231l311 -529l33 529h209l-49 -697l448 -737h-237l-336 567l-35 -567h-211l55 737z" />
<glyph unicode="y" d="M-182 1434h233l346 -654l-2 654h215l-28 -959l127 -475h-226l-127 475z" />
<glyph unicode="z" horiz-adv-x="757" d="M-123 1434h637l53 -201l-153 -1028h428l55 -205h-659l-54 201l154 1028h-406z" />
<glyph unicode="{" horiz-adv-x="526" d="M-2 809q62 0 77.5 25.5t0.5 97.5l-58 274q-21 114 24.5 171t143.5 57h115l49 -185h-33q-55 0 -70.5 -30t1.5 -115l45 -205q31 -150 -84 -182q76 -18 117 -66t63 -116l66 -205q27 -83 59.5 -114.5t87.5 -31.5h33l49 -184h-115q-99 0 -174 57t-112 170l-90 275 q-25 72 -54 97.5t-92 25.5z" />
<glyph unicode="|" horiz-adv-x="1024" d="M201 1567h184l457 -1700h-185z" />
<glyph unicode="}" horiz-adv-x="526" d="M-158 1434h115q97 0 172.5 -57.5t112.5 -170.5l90 -274q26 -73 54 -98t91 -25l51 -184q-63 0 -79 -26.5t0 -96.5l57 -275q23 -113 -23 -170t-145 -57h-115l-49 184h33q55 0 70.5 30.5t-1.5 115.5l-45 205q-32 150 86 182q-77 18 -118.5 66t-63.5 116l-65 205 q-27 83 -59 114t-87 31h-33z" />
<glyph unicode="~" d="M25 680q42 104 87 144t107 40q37 0 86 -19.5t87.5 -43t82.5 -43t72 -19.5q33 0 51.5 23t50.5 94l137 -111q-42 -102 -87 -139t-109 -37q-47 0 -111 31.5t-123 62.5t-94 31q-34 0 -53.5 -23.5t-48.5 -92.5z" />
<glyph unicode="&#xa1;" horiz-adv-x="389" d="M82 0v598l29 518h168l28 -518v-598h-225zM86 1217v217h217v-217h-217z" />
<glyph unicode="&#xa2;" d="M74 426v582q0 145 60.5 234.5t178.5 115.5v106h185v-104q247 -50 247 -352v-99h-213v113q0 141 -116 141q-117 0 -117 -141v-610q0 -140 117 -140q116 0 116 140v163h213v-149q0 -149 -62.5 -239t-184.5 -113v-105h-185v107q-118 25 -178.5 114t-60.5 236z" />
<glyph unicode="&#xa3;" d="M61 0v197q82 0 137 63t58 170h-166v174h137q-14 39 -42.5 99t-49 104.5t-37 120t-16.5 162.5q0 173 84.5 266.5t247.5 93.5t247 -93.5t84 -266.5v-142h-213v156q0 74 -28 107.5t-84 33.5q-113 0 -113 -141q0 -88 16.5 -164.5t37 -122.5t46 -106t37.5 -107h248v-174h-233 q-14 -144 -115 -225h387v-205h-670z" />
<glyph unicode="&#xa4;" d="M66 465l112 113q-37 61 -37 139q0 79 37 137l-112 115l88 88l114 -115q61 39 138 39q73 0 137 -39l114 115l88 -88l-114 -115q39 -64 39 -137q0 -76 -39 -137l114 -115l-88 -88l-114 112q-56 -36 -137 -36t-140 36l-112 -112zM274 717q0 -54 39 -92.5t93 -38.5t92.5 38.5 t38.5 92.5t-38.5 92.5t-92.5 38.5t-93 -38.5t-39 -92.5z" />
<glyph unicode="&#xa5;" d="M14 1434h236l166 -633l166 633h215l-262 -879h170v-113h-187v-92h187v-112h-187v-238h-225v238h-187v112h187v92h-187v113h168z" />
<glyph unicode="&#xa6;" horiz-adv-x="1024" d="M430 -133v727h184v-727h-184zM430 840v727h184v-727h-184z" />
<glyph unicode="&#xa7;" d="M72 643q0 80 36 145.5t105 104.5q-66 43 -103.5 105.5t-37.5 160.5q0 128 86 209.5t245 81.5q160 0 246 -76t86 -203v-73h-213v43q0 56 -29.5 89.5t-82.5 33.5q-54 0 -83.5 -30t-29.5 -85q0 -34 24.5 -60.5t63 -46t85.5 -40t94 -48.5t85.5 -64.5t63 -96.5t24.5 -136 q0 -79 -37 -145.5t-106 -105.5q143 -88 143 -265q0 -128 -86 -209.5t-245 -81.5q-160 0 -246 76t-86 203v102h213v-71q0 -56 29.5 -89.5t82.5 -33.5q54 0 83.5 30t29.5 85q0 34 -24.5 60.5t-63 46t-85.5 39.5t-94 48t-85.5 64.5t-63 96.5t-24.5 136zM287 651q0 -56 32 -91.5 t93 -65.5q50 7 80 51.5t30 103.5q0 55 -32.5 90.5t-94.5 65.5q-50 -7 -79 -51t-29 -103z" />
<glyph unicode="&#xa8;" horiz-adv-x="512" d="M2 1509v197h197v-197h-197zM313 1509v197h197v-197h-197z" />
<glyph unicode="&#xa9;" horiz-adv-x="1507" d="M41 717q0 157 54.5 294t149.5 233t227 151t282 55t282 -55t226.5 -151.5t149 -233t54.5 -293.5t-54.5 -293.5t-149 -233t-226.5 -151.5t-282 -55t-282 55t-227 151t-149.5 233t-54.5 294zM188 717q0 -168 73.5 -303.5t203 -211t289.5 -75.5t289 75.5t202.5 211 t73.5 303.5t-73.5 303.5t-202.5 211t-289 75.5t-289.5 -75.5t-203 -211t-73.5 -303.5zM514 516v397q0 124 58 189t173 65t173.5 -65t58.5 -189v-73h-148v86q0 98 -79 98q-80 0 -80 -98v-418q0 -96 80 -96q79 0 79 96v123h148v-115q0 -121 -59 -185.5t-173 -64.5t-172.5 64.5 t-58.5 185.5z" />
<glyph unicode="&#xaa;" horiz-adv-x="569" d="M61 446v142h435v-142h-435zM61 879v8q0 137 75.5 194t215.5 62v94q0 76 -57 76q-35 0 -52.5 -20t-17.5 -68v-47h-135v39q0 109 53.5 168t157.5 59q195 0 195 -227v-535h-121l-8 98q-35 -108 -146 -108q-160 0 -160 207zM205 891q0 -88 74 -88q68 0 73 74v159 q-147 -7 -147 -127v-18z" />
<glyph unicode="&#xab;" horiz-adv-x="727" d="M33 719l127 526h202l-124 -526l124 -559h-202zM365 719l127 526h202l-125 -526l125 -559h-202z" />
<glyph unicode="&#xac;" d="M51 637v160h709v-441h-160v281h-549z" />
<glyph unicode="&#xad;" horiz-adv-x="552" d="M72 614v205h409v-205h-409z" />
<glyph unicode="&#xae;" horiz-adv-x="1507" d="M41 717q0 157 54.5 294t149.5 233t227 151t282 55t282 -55t226.5 -151.5t149 -233t54.5 -293.5t-54.5 -293.5t-149 -233t-226.5 -151.5t-282 -55t-282 55t-227 151t-149.5 233t-54.5 294zM188 717q0 -168 73.5 -303.5t203 -211t289.5 -75.5t289 75.5t202.5 211 t73.5 303.5t-73.5 303.5t-202.5 211t-289 75.5t-289.5 -75.5t-203 -211t-73.5 -303.5zM528 279v876h238q119 0 175 -56.5t56 -172.5v-19q0 -155 -106 -202q57 -24 81.5 -76.5t24.5 -134.5v-95q0 -76 19 -120h-160q-14 38 -14 122v95q0 69 -25 98t-80 29h-53v-344h-156z M684 766h64q46 0 70 23.5t24 80.5v37q0 54 -20 79.5t-64 25.5h-74v-246z" />
<glyph unicode="&#xaf;" horiz-adv-x="512" d="M20 1518v159h472v-159h-472z" />
<glyph unicode="&#xb0;" horiz-adv-x="466" d="M31 1247q0 85 58.5 144t143.5 59t144 -59t59 -144t-59 -144t-144 -59t-143.5 59t-58.5 144zM133 1247q0 -41 29.5 -70.5t70.5 -29.5t71 29.5t30 70.5t-30 71t-71 30t-70.5 -30t-29.5 -71z" />
<glyph unicode="&#xb1;" d="M72 356v160h254v164h-254v160h254v233h159v-233h254v-160h-254v-164h254v-160h-667z" />
<glyph unicode="&#xb2;" horiz-adv-x="573" d="M86 719v110q0 54 15.5 101.5t40.5 84t55.5 71t60.5 68.5t55 70.5t40.5 84t15.5 100.5q0 57 -19 79.5t-55 22.5q-74 0 -74 -90v-96h-135v88q0 110 54 168.5t159 58.5t159 -58.5t54 -168.5q0 -83 -32 -157t-76 -126t-87.5 -98.5t-69.5 -93t-18 -90.5h271v-129h-414z" />
<glyph unicode="&#xb3;" horiz-adv-x="573" d="M74 938v74h135v-84q0 -90 74 -90q36 0 54.5 23t18.5 81v70q0 63 -21.5 88.5t-70.5 25.5h-49v129h55q86 0 86 99v51q0 58 -18.5 81t-54.5 23q-74 0 -74 -90v-57h-135v47q0 111 54 170t159 59t159 -59t54 -170v-23q0 -144 -101 -186q101 -43 101 -190v-72q0 -111 -54 -170 t-159 -59t-159 59t-54 170z" />
<glyph unicode="&#xb4;" horiz-adv-x="512" d="M55 1509l140 228h221l-209 -228h-152z" />
<glyph unicode="&#xb5;" d="M63 -190v1214h226v-694q0 -142 117 -142q116 0 116 142v694h226v-1024h-205v106q-63 -122 -205 -122q-21 0 -49 4v-178h-226z" />
<glyph unicode="&#xb6;" d="M29 893v186q0 173 84.5 264t251.5 91h364v-1567h-164v1403h-110v-1403h-164l4 676q-126 0 -196 96t-70 254z" />
<glyph unicode="&#xb7;" horiz-adv-x="380" d="M82 608v217h217v-217h-217z" />
<glyph unicode="&#xb8;" horiz-adv-x="512" d="M53 -162h152v-16q0 -41 45 -41q51 0 51 49q0 29 -18 41t-56 12h-20v146h98v-109q78 0 115 -22t37 -74q0 -40 -14.5 -66t-44.5 -38.5t-63.5 -16.5t-84.5 -4q-94 0 -145.5 26.5t-51.5 92.5v20z" />
<glyph unicode="&#xb9;" horiz-adv-x="409" d="M51 1413v100q40 0 67.5 8.5t45.5 27.5t26.5 34.5t20.5 44.5h94v-909h-143v694h-111z" />
<glyph unicode="&#xba;" horiz-adv-x="573" d="M70 446v142h434v-142h-434zM70 899v318q0 108 56 167.5t161 59.5t161 -59.5t56 -167.5v-318q0 -108 -56 -167.5t-161 -59.5t-161 59.5t-56 167.5zM213 891q0 -48 18.5 -68t55.5 -20q73 0 73 88v334q0 88 -73 88q-37 0 -55.5 -20t-18.5 -68v-334z" />
<glyph unicode="&#xbb;" horiz-adv-x="727" d="M33 160l125 559l-125 526h203l126 -526l-126 -559h-203zM365 160l124 559l-124 526h202l127 -526l-127 -559h-202z" />
<glyph unicode="&#xbc;" horiz-adv-x="1284" d="M133 1219v100q40 0 67.5 8.5t45.5 27.5t26.5 34.5t20.5 44.5h94v-910h-143v695h-111zM328 0l565 1434h133l-565 -1434h-133zM760 164v131l260 614h156v-614h67v-131h-67v-164h-142v164h-274zM889 295h145v336z" />
<glyph unicode="&#xbd;" horiz-adv-x="1284" d="M133 1219v100q40 0 67.5 8.5t45.5 27.5t26.5 34.5t20.5 44.5h94v-910h-143v695h-111zM266 0l565 1434h134l-566 -1434h-133zM797 0v111q0 62 21 117t52 93t68 80.5t68 80t52 92t21 116.5q0 57 -18.5 80t-54.5 23q-74 0 -74 -91v-96h-135v88q0 110 54 169t159 59t159 -59 t54 -169q0 -83 -32 -157t-76 -126t-87.5 -98.5t-69.5 -93t-18 -90.5h270v-129h-413z" />
<glyph unicode="&#xbe;" horiz-adv-x="1284" d="M74 743v74h135v-84q0 -90 74 -90q36 0 54.5 23.5t18.5 81.5v69q0 63 -22 89t-70 26h-49v129h55q86 0 86 98v51q0 58 -18.5 81.5t-54.5 23.5q-74 0 -74 -90v-58h-135v47q0 111 54 170.5t159 59.5t159 -59.5t54 -170.5v-22q0 -144 -101 -186q101 -43 101 -191v-72 q0 -111 -54 -170t-159 -59t-159 59t-54 170zM348 0l565 1434h134l-566 -1434h-133zM760 164v131l260 614h156v-614h67v-131h-67v-164h-142v164h-274zM889 295h145v336z" />
<glyph unicode="&#xbf;" horiz-adv-x="737" d="M33 344q0 103 27.5 188.5t66.5 142.5t78 109.5t66.5 116.5t27.5 135q0 44 -8 80h201q12 -38 12 -88q0 -86 -25.5 -157t-61.5 -123.5t-72 -106.5t-61.5 -133.5t-25.5 -177.5q0 -142 113 -142q112 0 112 142v155h213v-141q0 -173 -84 -266.5t-247 -93.5t-247.5 93.5 t-84.5 266.5zM285 1217v217h217v-217h-217z" />
<glyph unicode="&#xc0;" horiz-adv-x="833" d="M23 0l229 1434h330l229 -1434h-227l-39 260h-277l-39 -260h-206zM170 1737h231l140 -228h-162zM297 455h217l-108 725z" />
<glyph unicode="&#xc1;" horiz-adv-x="833" d="M100 1434h330l612 -1434h-227l-108 260h-277l31 -260h-207zM125 1509l78 228h221l-148 -228h-151zM322 1180l86 -725h217z" />
<glyph unicode="&#xc2;" horiz-adv-x="833" d="M-37 1509l119 228h203l243 -228h-192l-123 113l-59 -113h-191zM100 1434h330l612 -1434h-227l-108 260h-277l31 -260h-207zM322 1180l86 -725h217z" />
<glyph unicode="&#xc3;" horiz-adv-x="833" d="M23 0l229 1434h330l229 -1434h-227l-39 260h-277l-39 -260h-206zM139 1577q52 139 174 139q46 0 102 -25.5t83 -25.5q31 0 51 11.5t37 47.5l108 -75q-52 -140 -174 -140q-46 0 -101.5 26t-82.5 26q-31 0 -50.5 -12t-37.5 -48zM297 455h217l-108 725z" />
<glyph unicode="&#xc4;" horiz-adv-x="833" d="M23 0l229 1434h330l229 -1434h-227l-39 260h-277l-39 -260h-206zM162 1509v197h196v-197h-196zM297 455h217l-108 725zM473 1509v197h197v-197h-197z" />
<glyph unicode="&#xc5;" horiz-adv-x="833" d="M23 0l229 1434h330l229 -1434h-227l-39 260h-277l-39 -260h-206zM252 1667q0 69 47.5 116.5t116.5 47.5t116.5 -47.5t47.5 -116.5t-47.5 -116.5t-116.5 -47.5t-116.5 47.5t-47.5 116.5zM297 455h217l-108 725zM354 1667q0 -26 18 -43.5t44 -17.5t43.5 17.5t17.5 43.5 t-17.5 44t-43.5 18t-44 -18t-18 -44z" />
<glyph unicode="&#xc6;" horiz-adv-x="1187" d="M8 0l383 1434h739v-205h-389v-400h310v-204h-310v-420h389v-205h-614v260h-227l-66 -260h-215zM340 455h176v690z" />
<glyph unicode="&#xc7;" horiz-adv-x="790" d="M63 344v746q0 173 86 266.5t250 93.5t250 -93.5t86 -266.5v-140h-213v154q0 141 -116 141q-117 0 -117 -141v-774q0 -140 117 -140q116 0 116 140v205h213v-191q0 -161 -74.5 -253.5t-216.5 -104.5v-66q78 0 115 -22t37 -74q0 -40 -14.5 -66t-44.5 -38.5t-63.5 -16.5 t-84.5 -4q-93 0 -144.5 26.5t-51.5 92.5v20h151v-16q0 -41 45 -41q51 0 51 49q0 29 -17.5 41t-55.5 12h-21v105q-139 13 -211 105t-72 251z" />
<glyph unicode="&#xc8;" horiz-adv-x="753" d="M82 0v1434h614v-205h-389v-400h309v-204h-309v-420h389v-205h-614zM139 1737h232l139 -228h-162z" />
<glyph unicode="&#xc9;" horiz-adv-x="753" d="M-68 1434h613l53 -205h-389l108 -400h310l53 -204h-309l112 -420h389l56 -205h-615zM96 1509l78 228h221l-147 -228h-152z" />
<glyph unicode="&#xca;" horiz-adv-x="753" d="M82 0v1434h614v-205h-389v-400h309v-204h-309v-420h389v-205h-614zM102 1509l183 228h202l183 -228h-193l-92 113l-90 -113h-193z" />
<glyph unicode="&#xcb;" horiz-adv-x="753" d="M82 0v1434h614v-205h-389v-400h309v-204h-309v-420h389v-205h-614zM133 1509v197h197v-197h-197zM444 1509v197h197v-197h-197z" />
<glyph unicode="&#xcc;" horiz-adv-x="389" d="M-51 1737h231l139 -228h-161zM82 0v1434h225v-1434h-225z" />
<glyph unicode="&#xcd;" horiz-adv-x="389" d="M-94 1509l78 228h219l-148 -228h-149zM-68 1434h224l383 -1434h-226z" />
<glyph unicode="&#xce;" horiz-adv-x="389" d="M-88 1509l182 228h203l182 -228h-192l-92 113l-91 -113h-192zM82 0v1434h225v-1434h-225z" />
<glyph unicode="&#xcf;" horiz-adv-x="389" d="M-59 1509v197h196v-197h-196zM82 0v1434h225v-1434h-225zM252 1509v197h197v-197h-197z" />
<glyph unicode="&#xd0;" horiz-adv-x="835" d="M8 625v184h74v625h356q167 0 251.5 -91t84.5 -264v-725q0 -173 -84.5 -263.5t-251.5 -90.5h-356v625h-74zM307 205h127q56 0 85.5 32.5t29.5 106.5v746q0 74 -29.5 106.5t-85.5 32.5h-127v-420h139v-184h-139v-420z" />
<glyph unicode="&#xd1;" horiz-adv-x="874" d="M80 0v1434h282l232 -859v859h201v-1434h-232l-280 1038v-1038h-203zM160 1577q52 139 174 139q46 0 101.5 -25.5t82.5 -25.5q31 0 51 11.5t37 47.5l109 -75q-53 -140 -174 -140q-46 0 -102 26t-83 26q-31 0 -50.5 -12t-37.5 -48z" />
<glyph unicode="&#xd2;" d="M63 344v746q0 172 89 266t254 94t253.5 -94t88.5 -266v-746q0 -172 -88.5 -266t-253.5 -94t-254 94t-89 266zM158 1737h231l139 -228h-161zM289 330q0 -142 117 -142q116 0 116 142v774q0 141 -116 141q-117 0 -117 -141v-774z" />
<glyph unicode="&#xd3;" d="M0 1090q-45 173 18 266.5t228 93.5t278.5 -94t159.5 -266l201 -746q46 -172 -17.5 -266t-228.5 -94t-278.5 94t-159.5 266zM113 1509l77 228h222l-148 -228h-151zM223 1104l207 -774q38 -142 154 -142q118 0 80 142l-207 774q-40 141 -156 141q-118 0 -78 -141z" />
<glyph unicode="&#xd4;" d="M-51 1509l119 228h202l244 -228h-192l-123 113l-60 -113h-190zM0 1090q-45 173 18 266.5t228 93.5t278.5 -94t159.5 -266l201 -746q46 -172 -17.5 -266t-228.5 -94t-278.5 94t-159.5 266zM223 1104l207 -774q38 -142 154 -142q118 0 80 142l-207 774q-40 141 -156 141 q-118 0 -78 -141z" />
<glyph unicode="&#xd5;" d="M63 344v746q0 172 89 266t254 94t253.5 -94t88.5 -266v-746q0 -172 -88.5 -266t-253.5 -94t-254 94t-89 266zM129 1577q52 139 174 139q46 0 101.5 -25.5t82.5 -25.5q31 0 51 11.5t37 47.5l109 -75q-52 -140 -174 -140q-46 0 -101.5 26t-82.5 26q-31 0 -50.5 -12 t-37.5 -48zM289 330q0 -142 117 -142q116 0 116 142v774q0 141 -116 141q-117 0 -117 -141v-774z" />
<glyph unicode="&#xd6;" d="M-78 1706h195l53 -197h-195zM-2 1090q-46 173 16.5 266.5t227.5 93.5t278.5 -94t159.5 -266l201 -746q46 -172 -17.5 -266t-228.5 -94t-278.5 94t-159.5 266zM219 1104l207 -774q38 -142 154 -142q117 0 79 142l-206 774q-40 141 -156 141q-118 0 -78 -141zM231 1706h197 l53 -197h-196z" />
<glyph unicode="&#xd7;" d="M78 500l217 217l-215 215l108 108l218 -215l217 217l108 -108l-217 -217l217 -217l-108 -109l-217 217l-220 -217z" />
<glyph unicode="&#xd8;" d="M63 344v746q0 172 89 266t254 94q124 0 204 -53l41 112l76 -26l-53 -146q74 -89 74 -247v-746q0 -172 -88.5 -266t-253.5 -94q-128 0 -205 51l-41 -111l-76 27l51 143q-72 93 -72 250zM289 514l229 633q-14 98 -112 98q-117 0 -117 -141v-590zM291 287q17 -99 115 -99 q116 0 116 142v590z" />
<glyph unicode="&#xd9;" horiz-adv-x="815" d="M72 342v1092h225v-1106q0 -140 117 -140q116 0 116 140v1106h213v-1092q0 -173 -85.5 -266.5t-249.5 -93.5t-250 93.5t-86 266.5zM162 1737h231l139 -228h-161z" />
<glyph unicode="&#xda;" horiz-adv-x="815" d="M-82 1434h223l297 -1106q37 -140 154 -140t80 140l-297 1106h213l293 -1092q46 -173 -15 -266.5t-225 -93.5t-275 93.5t-157 266.5zM115 1509l80 228h221l-150 -228h-151z" />
<glyph unicode="&#xdb;" horiz-adv-x="815" d="M72 342v1092h225v-1106q0 -140 117 -140q116 0 116 140v1106h213v-1092q0 -173 -85.5 -266.5t-249.5 -93.5t-250 93.5t-86 266.5zM127 1509l182 228h203l182 -228h-192l-92 113l-91 -113h-192z" />
<glyph unicode="&#xdc;" horiz-adv-x="815" d="M-86 1434h223l297 -1106q37 -140 154 -140t80 140l-297 1106h213l293 -1092q46 -173 -15 -266.5t-225 -93.5t-275 93.5t-157 266.5zM-72 1706h195l51 -197h-194zM238 1706h196l51 -197h-196z" />
<glyph unicode="&#xdd;" d="M8 1434h236l172 -654l172 654h215l-285 -959v-475h-225v475zM295 1509l139 228h221l-209 -228h-151z" />
<glyph unicode="&#xde;" horiz-adv-x="772" d="M82 0v1434h225v-164h107q167 0 251.5 -91t84.5 -264v-186q0 -173 -84.5 -263.5t-251.5 -90.5h-107v-375h-225zM307 580h107q56 0 83 30.5t27 104.5v215q0 74 -27 104.5t-83 30.5h-107v-485z" />
<glyph unicode="&#xdf;" horiz-adv-x="1531" d="M-45 1090q-46 173 13 266.5t220 93.5q163 0 272.5 -93.5t155.5 -266.5l13 -46h-213l-17 60q-21 75 -58 108t-93 33q-114 0 -74 -141q16 -60 54.5 -113t88.5 -95.5t108.5 -85t117.5 -89t112 -98.5t96.5 -124t65.5 -155q46 -173 -14.5 -266.5t-224.5 -93.5 q-165 0 -276 93.5t-157 266.5l-22 88h213l26 -102q40 -140 154 -140q120 0 80 140q-16 59 -54.5 112.5t-88.5 96t-108.5 85t-117.5 89t-111.5 98.5t-95.5 124t-65 155zM719 1090q-46 173 13 266.5t222 93.5t272.5 -93.5t155.5 -266.5l13 -46h-213l-17 60q-21 75 -58 108 t-93 33q-114 0 -74 -141q16 -60 54.5 -113t88.5 -95.5t108.5 -85t117.5 -89t112 -98.5t96.5 -124t65.5 -155q46 -173 -15 -266.5t-225 -93.5t-275 93.5t-157 266.5l-22 88h213l26 -102q40 -140 154 -140q120 0 80 140q-16 60 -54.5 113t-88.5 95.5t-108.5 85t-117.5 89 t-112 98.5t-96.5 124t-65.5 155z" />
<glyph unicode="&#xe0;" horiz-adv-x="833" d="M23 0l229 1434h330l229 -1434h-227l-39 260h-277l-39 -260h-206zM170 1737h231l140 -228h-162zM297 455h217l-108 725z" />
<glyph unicode="&#xe1;" horiz-adv-x="833" d="M100 1434h330l612 -1434h-227l-108 260h-277l31 -260h-207zM125 1509l78 228h221l-148 -228h-151zM322 1180l86 -725h217z" />
<glyph unicode="&#xe2;" horiz-adv-x="833" d="M-37 1509l119 228h203l243 -228h-192l-123 113l-59 -113h-191zM100 1434h330l612 -1434h-227l-108 260h-277l31 -260h-207zM322 1180l86 -725h217z" />
<glyph unicode="&#xe3;" horiz-adv-x="833" d="M23 0l229 1434h330l229 -1434h-227l-39 260h-277l-39 -260h-206zM139 1577q52 139 174 139q46 0 102 -25.5t83 -25.5q31 0 51 11.5t37 47.5l108 -75q-52 -140 -174 -140q-46 0 -101.5 26t-82.5 26q-31 0 -50.5 -12t-37.5 -48zM297 455h217l-108 725z" />
<glyph unicode="&#xe4;" horiz-adv-x="833" d="M23 0l229 1434h330l229 -1434h-227l-39 260h-277l-39 -260h-206zM162 1509v197h196v-197h-196zM297 455h217l-108 725zM473 1509v197h197v-197h-197z" />
<glyph unicode="&#xe5;" horiz-adv-x="833" d="M23 0l229 1434h330l229 -1434h-227l-39 260h-277l-39 -260h-206zM252 1667q0 69 47.5 116.5t116.5 47.5t116.5 -47.5t47.5 -116.5t-47.5 -116.5t-116.5 -47.5t-116.5 47.5t-47.5 116.5zM297 455h217l-108 725zM354 1667q0 -26 18 -43.5t44 -17.5t43.5 17.5t17.5 43.5 t-17.5 44t-43.5 18t-44 -18t-18 -44z" />
<glyph unicode="&#xe6;" horiz-adv-x="1187" d="M8 0l383 1434h739v-205h-389v-400h310v-204h-310v-420h389v-205h-614v260h-227l-66 -260h-215zM340 455h176v690z" />
<glyph unicode="&#xe7;" horiz-adv-x="790" d="M63 344v746q0 173 86 266.5t250 93.5t250 -93.5t86 -266.5v-140h-213v154q0 141 -116 141q-117 0 -117 -141v-774q0 -140 117 -140q116 0 116 140v205h213v-191q0 -161 -74.5 -253.5t-216.5 -104.5v-66q78 0 115 -22t37 -74q0 -40 -14.5 -66t-44.5 -38.5t-63.5 -16.5 t-84.5 -4q-93 0 -144.5 26.5t-51.5 92.5v20h151v-16q0 -41 45 -41q51 0 51 49q0 29 -17.5 41t-55.5 12h-21v105q-139 13 -211 105t-72 251z" />
<glyph unicode="&#xe8;" horiz-adv-x="753" d="M82 0v1434h614v-205h-389v-400h309v-204h-309v-420h389v-205h-614zM139 1737h232l139 -228h-162z" />
<glyph unicode="&#xe9;" horiz-adv-x="753" d="M-68 1434h613l53 -205h-389l108 -400h310l53 -204h-309l112 -420h389l56 -205h-615zM96 1509l78 228h221l-147 -228h-152z" />
<glyph unicode="&#xea;" horiz-adv-x="753" d="M82 0v1434h614v-205h-389v-400h309v-204h-309v-420h389v-205h-614zM102 1509l183 228h202l183 -228h-193l-92 113l-90 -113h-193z" />
<glyph unicode="&#xeb;" horiz-adv-x="753" d="M82 0v1434h614v-205h-389v-400h309v-204h-309v-420h389v-205h-614zM133 1509v197h197v-197h-197zM444 1509v197h197v-197h-197z" />
<glyph unicode="&#xec;" horiz-adv-x="389" d="M-51 1737h231l139 -228h-161zM82 0v1434h225v-1434h-225z" />
<glyph unicode="&#xed;" horiz-adv-x="389" d="M-94 1509l78 228h219l-148 -228h-149zM-68 1434h224l383 -1434h-226z" />
<glyph unicode="&#xee;" horiz-adv-x="389" d="M-88 1509l182 228h203l182 -228h-192l-92 113l-91 -113h-192zM82 0v1434h225v-1434h-225z" />
<glyph unicode="&#xef;" horiz-adv-x="389" d="M-59 1509v197h196v-197h-196zM82 0v1434h225v-1434h-225zM252 1509v197h197v-197h-197z" />
<glyph unicode="&#xf0;" horiz-adv-x="835" d="M8 625v184h74v625h356q167 0 251.5 -91t84.5 -264v-725q0 -173 -84.5 -263.5t-251.5 -90.5h-356v625h-74zM307 205h127q56 0 85.5 32.5t29.5 106.5v746q0 74 -29.5 106.5t-85.5 32.5h-127v-420h139v-184h-139v-420z" />
<glyph unicode="&#xf1;" horiz-adv-x="874" d="M80 0v1434h282l232 -859v859h201v-1434h-232l-280 1038v-1038h-203zM160 1577q52 139 174 139q46 0 101.5 -25.5t82.5 -25.5q31 0 51 11.5t37 47.5l109 -75q-53 -140 -174 -140q-46 0 -102 26t-83 26q-31 0 -50.5 -12t-37.5 -48z" />
<glyph unicode="&#xf2;" d="M63 344v746q0 172 89 266t254 94t253.5 -94t88.5 -266v-746q0 -172 -88.5 -266t-253.5 -94t-254 94t-89 266zM158 1737h231l139 -228h-161zM289 330q0 -142 117 -142q116 0 116 142v774q0 141 -116 141q-117 0 -117 -141v-774z" />
<glyph unicode="&#xf3;" d="M0 1090q-45 173 18 266.5t228 93.5t278.5 -94t159.5 -266l201 -746q46 -172 -17.5 -266t-228.5 -94t-278.5 94t-159.5 266zM113 1509l77 228h222l-148 -228h-151zM223 1104l207 -774q38 -142 154 -142q118 0 80 142l-207 774q-40 141 -156 141q-118 0 -78 -141z" />
<glyph unicode="&#xf4;" d="M-51 1509l119 228h202l244 -228h-192l-123 113l-60 -113h-190zM0 1090q-45 173 18 266.5t228 93.5t278.5 -94t159.5 -266l201 -746q46 -172 -17.5 -266t-228.5 -94t-278.5 94t-159.5 266zM223 1104l207 -774q38 -142 154 -142q118 0 80 142l-207 774q-40 141 -156 141 q-118 0 -78 -141z" />
<glyph unicode="&#xf5;" d="M63 344v746q0 172 89 266t254 94t253.5 -94t88.5 -266v-746q0 -172 -88.5 -266t-253.5 -94t-254 94t-89 266zM129 1577q52 139 174 139q46 0 101.5 -25.5t82.5 -25.5q31 0 51 11.5t37 47.5l109 -75q-52 -140 -174 -140q-46 0 -101.5 26t-82.5 26q-31 0 -50.5 -12 t-37.5 -48zM289 330q0 -142 117 -142q116 0 116 142v774q0 141 -116 141q-117 0 -117 -141v-774z" />
<glyph unicode="&#xf6;" d="M-78 1706h195l53 -197h-195zM-2 1090q-46 173 16.5 266.5t227.5 93.5t278.5 -94t159.5 -266l201 -746q46 -172 -17.5 -266t-228.5 -94t-278.5 94t-159.5 266zM219 1104l207 -774q38 -142 154 -142q117 0 79 142l-206 774q-40 141 -156 141q-118 0 -78 -141zM231 1706h197 l53 -197h-196z" />
<glyph unicode="&#xf7;" d="M51 637v160h709v-160h-709zM297 295v217h217v-217h-217zM297 920v217h217v-217h-217z" />
<glyph unicode="&#xf8;" d="M63 344v746q0 172 89 266t254 94q124 0 204 -53l41 112l76 -26l-53 -146q74 -89 74 -247v-746q0 -172 -88.5 -266t-253.5 -94q-128 0 -205 51l-41 -111l-76 27l51 143q-72 93 -72 250zM289 514l229 633q-14 98 -112 98q-117 0 -117 -141v-590zM291 287q17 -99 115 -99 q116 0 116 142v590z" />
<glyph unicode="&#xf9;" horiz-adv-x="815" d="M72 342v1092h225v-1106q0 -140 117 -140q116 0 116 140v1106h213v-1092q0 -173 -85.5 -266.5t-249.5 -93.5t-250 93.5t-86 266.5zM162 1737h231l139 -228h-161z" />
<glyph unicode="&#xfa;" horiz-adv-x="815" d="M-82 1434h223l297 -1106q37 -140 154 -140t80 140l-297 1106h213l293 -1092q46 -173 -15 -266.5t-225 -93.5t-275 93.5t-157 266.5zM115 1509l80 228h221l-150 -228h-151z" />
<glyph unicode="&#xfb;" horiz-adv-x="815" d="M72 342v1092h225v-1106q0 -140 117 -140q116 0 116 140v1106h213v-1092q0 -173 -85.5 -266.5t-249.5 -93.5t-250 93.5t-86 266.5zM127 1509l182 228h203l182 -228h-192l-92 113l-91 -113h-192z" />
<glyph unicode="&#xfc;" horiz-adv-x="815" d="M-86 1434h223l297 -1106q37 -140 154 -140t80 140l-297 1106h213l293 -1092q46 -173 -15 -266.5t-225 -93.5t-275 93.5t-157 266.5zM-72 1706h195l51 -197h-194zM238 1706h196l51 -197h-196z" />
<glyph unicode="&#xfd;" d="M8 1434h236l172 -654l172 654h215l-285 -959v-475h-225v475zM295 1509l139 228h221l-209 -228h-151z" />
<glyph unicode="&#xfe;" horiz-adv-x="772" d="M82 0v1434h225v-164h107q167 0 251.5 -91t84.5 -264v-186q0 -173 -84.5 -263.5t-251.5 -90.5h-107v-375h-225zM307 580h107q56 0 83 30.5t27 104.5v215q0 74 -27 104.5t-83 30.5h-107v-485z" />
<glyph unicode="&#xff;" d="M8 1434h236l172 -654l172 654h215l-285 -959v-475h-225v475zM160 1509v197h196v-197h-196zM471 1509v197h197v-197h-197z" />
<glyph unicode="&#x152;" horiz-adv-x="1200" d="M61 354v725q0 173 84.5 264t251.5 91h746v-205h-389v-400h309v-204h-309v-420h389v-205h-746q-167 0 -251.5 90.5t-84.5 263.5zM287 344q0 -74 29 -106.5t85 -32.5h127v1024h-127q-56 0 -85 -32.5t-29 -106.5v-746z" />
<glyph unicode="&#x153;" horiz-adv-x="1200" d="M61 354v725q0 173 84.5 264t251.5 91h746v-205h-389v-400h309v-204h-309v-420h389v-205h-746q-167 0 -251.5 90.5t-84.5 263.5zM287 344q0 -74 29 -106.5t85 -32.5h127v1024h-127q-56 0 -85 -32.5t-29 -106.5v-746z" />
<glyph unicode="&#x178;" d="M8 1434h236l172 -654l172 654h215l-285 -959v-475h-225v475zM160 1509v197h196v-197h-196zM471 1509v197h197v-197h-197z" />
<glyph unicode="&#x2c6;" horiz-adv-x="512" d="M-27 1509l183 228h202l183 -228h-193l-92 113l-90 -113h-193z" />
<glyph unicode="&#x2dc;" horiz-adv-x="512" d="M-20 1577q52 139 174 139q46 0 101.5 -25.5t82.5 -25.5q31 0 51 11.5t37 47.5l109 -75q-52 -140 -175 -140q-46 0 -101.5 26t-82.5 26q-31 0 -50.5 -12t-37.5 -48z" />
<glyph unicode="&#x2000;" horiz-adv-x="915" />
<glyph unicode="&#x2001;" horiz-adv-x="1831" />
<glyph unicode="&#x2002;" horiz-adv-x="915" />
<glyph unicode="&#x2003;" horiz-adv-x="1831" />
<glyph unicode="&#x2004;" horiz-adv-x="610" />
<glyph unicode="&#x2005;" horiz-adv-x="457" />
<glyph unicode="&#x2006;" horiz-adv-x="305" />
<glyph unicode="&#x2007;" horiz-adv-x="305" />
<glyph unicode="&#x2008;" horiz-adv-x="228" />
<glyph unicode="&#x2009;" horiz-adv-x="366" />
<glyph unicode="&#x200a;" horiz-adv-x="101" />
<glyph unicode="&#x2010;" horiz-adv-x="552" d="M43 819h410l55 -205h-410z" />
<glyph unicode="&#x2011;" horiz-adv-x="552" d="M43 819h410l55 -205h-410z" />
<glyph unicode="&#x2012;" horiz-adv-x="552" d="M43 819h410l55 -205h-410z" />
<glyph unicode="&#x2013;" horiz-adv-x="1024" d="M0 625v184h1024v-184h-1024z" />
<glyph unicode="&#x2014;" horiz-adv-x="2048" d="M0 625v184h2048v-184h-2048z" />
<glyph unicode="&#x2018;" horiz-adv-x="380" d="M86 1206l37 228h92l-4 -205h86l57 -217h-217z" />
<glyph unicode="&#x2019;" horiz-adv-x="380" d="M25 1434h217l51 -195l-37 -227h-92l4 205h-86z" />
<glyph unicode="&#x201a;" horiz-adv-x="380" d="M25 217h217l51 -194l-37 -228h-92l4 205h-86z" />
<glyph unicode="&#x201c;" horiz-adv-x="679" d="M86 1206l37 228h92l-4 -205h86l57 -217h-217zM385 1206l37 228h92l-4 -205h86l57 -217h-217z" />
<glyph unicode="&#x201d;" horiz-adv-x="679" d="M25 1434h217l51 -195l-37 -227h-92l4 205h-86zM324 1434h217l51 -195l-37 -227h-92l4 205h-86z" />
<glyph unicode="&#x201e;" horiz-adv-x="679" d="M25 217h217l51 -194l-37 -228h-92l4 205h-86zM324 217h217l51 -194l-37 -228h-92l4 205h-86z" />
<glyph unicode="&#x2022;" d="M121 717q-32 118 28 201t179 83t224.5 -83t137.5 -201q31 -119 -30 -202t-179 -83q-119 0 -224 83.5t-136 201.5z" />
<glyph unicode="&#x2026;" horiz-adv-x="978" d="M51 217h217l60 -217h-217zM350 217h217l60 -217h-217zM649 217h217l60 -217h-217z" />
<glyph unicode="&#x202f;" horiz-adv-x="366" />
<glyph unicode="&#x2039;" horiz-adv-x="401" d="M33 719l123 545h213l-121 -545l121 -578h-213z" />
<glyph unicode="&#x203a;" horiz-adv-x="401" d="M33 141l121 578l-121 545h213l123 -545l-123 -578h-213z" />
<glyph unicode="&#x205f;" horiz-adv-x="457" />
<glyph unicode="&#x20ac;" d="M-6 891h55l-51 199q-46 174 11 267t220 93q164 0 272 -93t154 -267l27 -105h-213l-31 119q-21 75 -57.5 108t-91.5 33q-56 0 -74 -32.5t2 -108.5l57 -213h316l28 -113h-315l31 -112h315l31 -113h-315l59 -223q21 -75 56.5 -107.5t90.5 -32.5q114 0 74 140l-35 129h213 l31 -115q46 -174 -11.5 -267t-221.5 -93t-272 93t-154 267l-56 209h-57l-31 113h58l-31 112h-58z" />
<glyph unicode="&#x2122;" horiz-adv-x="1200" d="M20 1303v131h443v-131h-150v-598h-143v598h-150zM549 705v729h199l106 -512l96 512h199v-729h-135v518l-96 -518h-136l-108 514v-514h-125z" />
<glyph unicode="&#x25fc;" horiz-adv-x="1433" d="M0 0v1434h1434v-1434h-1434z" />
</font>
</defs>
</svg>
